<svg xmlns="http://www.w3.org/2000/svg"
     width="220"
     height="220"
     viewBox="40 40 140 140"
     preserveAspectRatio="xMidYMid meet"><g>
<path d="M 110.70 178.40 C109.17,177.57 107.48,175.76 106.95,174.38 C106.43,173.00 106.00,162.40 106.00,150.84 L 106.00 129.80 L 102.75 131.86 L 99.50 133.91 L 99.22 145.24 L 98.94 156.56 L 84.17 165.76 C76.05,170.82 67.95,175.47 66.18,176.09 C61.09,177.86 56.06,176.39 51.76,171.87 L 48.00 167.92 L 48.00 110.61 L 48.00 53.30 L 50.27 49.90 C51.52,48.03 54.11,45.71 56.02,44.75 C62.89,41.30 64.06,41.74 89.55,57.32 L 99.07 63.14 L 98.44 74.32 L 97.80 85.50 L 101.83 87.74 L 105.86 89.98 L 106.18 67.59 C106.58,39.34 105.59,41.00 122.04,41.00 C135.82,41.00 137.57,41.83 138.84,49.00 C139.41,52.20 140.06,53.38 141.07,53.08 C141.86,52.85 144.11,52.47 146.07,52.24 C149.35,51.86 150.13,52.32 155.37,57.78 C166.05,68.90 167.88,72.87 164.52,77.67 C163.14,79.64 163.21,79.83 165.54,80.42 C171.12,81.82 172.00,83.98 172.00,96.30 C172.00,103.14 171.57,108.03 170.91,108.69 C170.12,109.48 170.12,110.35 170.91,111.83 C171.51,112.95 172.00,118.43 172.00,124.01 C172.00,133.75 171.89,134.26 169.24,136.91 C167.72,138.43 165.81,139.92 164.99,140.21 C163.79,140.64 163.75,141.01 164.75,142.07 C165.44,142.80 166.00,145.04 166.00,147.04 C166.00,150.11 164.90,151.94 158.89,158.85 C150.70,168.26 149.04,169.01 141.04,166.89 C140.00,166.61 139.41,167.70 138.97,170.79 C138.22,175.99 136.50,177.86 131.39,179.05 C125.25,180.48 113.87,180.12 110.70,178.40 ZM 129.63 171.23 C130.25,170.83 131.07,168.61 131.46,166.30 C132.06,162.69 132.78,161.73 136.59,159.50 C140.97,156.94 141.07,156.93 144.11,158.70 L 147.20 160.50 L 151.17 156.00 C158.38,147.84 158.62,147.29 156.03,144.53 C153.89,142.26 153.86,141.93 155.22,137.82 C156.45,134.11 157.17,133.37 160.33,132.57 L 164.00 131.65 L 164.00 123.32 C164.00,115.36 163.90,115.00 161.75,115.01 C160.32,115.01 158.90,116.07 157.85,117.92 C156.93,119.52 154.35,121.88 152.10,123.17 C148.30,125.34 148.01,125.80 148.01,129.88 C147.99,142.02 140.44,151.33 128.86,153.50 C125.79,154.07 120.25,153.18 115.44,151.34 C114.25,150.88 114.00,152.50 114.00,160.81 C114.00,167.89 114.37,170.98 115.25,171.34 C117.21,172.13 128.38,172.05 129.63,171.23 ZM 131.98 143.75 C134.88,142.27 137.03,140.23 138.27,137.78 C141.80,130.84 140.26,130.68 130.04,136.97 C120.17,143.03 118.68,144.52 121.69,145.30 C125.45,146.27 127.71,145.93 131.98,143.75 ZM 99.88 123.00 C110.93,116.12 119.97,110.28 119.97,110.00 C119.97,109.52 80.76,84.86 78.90,84.17 C78.38,83.98 78.00,95.01 78.00,110.00 C78.00,124.99 78.38,136.02 78.90,135.83 C79.39,135.65 88.83,129.88 99.88,123.00 ZM 164.36 98.75 C165.49,91.27 164.67,88.00 161.67,88.00 C158.44,88.00 156.41,86.09 155.03,81.75 C153.98,78.43 154.08,77.71 155.91,75.39 C157.94,72.80 157.95,72.73 156.07,70.13 C155.02,68.69 152.35,65.74 150.14,63.60 C146.17,59.76 146.07,59.73 143.54,61.38 C141.07,63.00 140.79,62.96 136.59,60.50 C132.36,58.02 131.04,55.86 131.01,51.36 C131.00,48.68 129.27,48.00 122.50,48.00 C113.88,48.00 114.00,47.85 114.00,59.11 C114.00,64.55 114.34,68.99 114.75,68.99 C115.16,68.98 117.50,68.27 119.95,67.42 C126.20,65.24 132.94,66.32 138.31,70.36 C143.78,74.48 148.00,82.66 148.00,89.17 C148.00,93.67 148.25,94.13 151.89,96.43 C154.03,97.78 156.78,100.29 158.00,102.00 C161.31,106.64 163.33,105.61 164.36,98.75 ZM 137.61 81.59 C134.55,76.38 128.83,73.57 123.37,74.59 C121.47,74.95 120.05,75.62 120.21,76.09 C120.37,76.56 124.78,79.63 130.00,82.91 C140.49,89.50 142.08,89.22 137.61,81.59 Z" fill="hsl(218, 84%, 48%)"/>
</g>
</svg>