<svg xmlns="http://www.w3.org/2000/svg" width="1024" height="1024" viewBox="128 128 768 768">
<g>
<path d="M 0.00 0.00 L 1024.00 0.00 L 1024.00 1024.00 L 0.00 1024.00 ZM 1.00 1.00 L 1.00 1023.00 L 1023.00 1023.00 L 1023.00 1.00 ZM 595.03 752.27 C590.65,754.43 589.38,754.51 557.00,754.75 L 523.50 755.00 L 517.50 752.54 C509.69,749.34 502.67,741.99 500.53,734.78 C499.22,730.37 499.00,719.04 499.00,655.32 C499.00,614.44 498.72,581.00 498.39,581.00 C497.91,581.00 452.94,608.97 426.03,626.00 C423.85,627.38 418.35,630.80 413.79,633.60 C409.23,636.41 397.25,643.95 387.16,650.35 C377.07,656.76 368.41,662.00 367.91,662.00 C367.37,662.00 367.00,601.01 367.00,511.94 C367.00,392.18 367.25,362.03 368.25,362.60 C369.81,363.49 382.86,371.57 412.50,390.01 C425.15,397.88 442.25,408.45 450.50,413.50 C458.75,418.55 470.90,426.06 477.50,430.18 C484.10,434.30 491.63,438.91 494.23,440.42 L 498.95 443.16 L 499.23 366.33 C499.50,289.71 499.51,289.49 501.67,285.46 C504.66,279.87 511.66,273.68 517.56,271.41 C522.07,269.67 525.46,269.50 556.50,269.50 L 590.50 269.50 L 596.73 272.88 C607.48,278.71 611.66,286.38 612.97,302.65 C613.90,314.29 615.44,317.62 618.77,315.21 C619.72,314.52 623.20,312.62 626.50,310.98 C636.03,306.25 647.20,307.30 655.97,313.75 C661.17,317.57 702.50,364.25 705.33,369.50 C707.08,372.75 707.49,375.19 707.49,382.50 C707.49,392.43 706.73,394.54 700.44,402.07 L 696.75 406.48 L 700.63 407.27 C713.84,409.96 720.68,414.12 725.41,422.33 C729.66,429.71 730.20,435.23 729.80,467.50 C729.41,499.91 729.25,500.94 723.42,508.66 L 721.04 511.82 L 724.47 517.52 C729.77,526.33 730.21,530.05 729.84,563.02 L 729.50 592.55 L 726.16 599.33 C723.72,604.28 721.56,607.04 718.16,609.55 C713.29,613.15 705.62,616.00 700.82,616.00 C699.27,616.00 698.00,616.24 698.00,616.53 C698.00,616.82 699.80,619.33 702.00,622.12 C709.48,631.58 710.93,644.28 705.72,654.57 C703.27,659.40 687.79,677.63 667.72,699.31 C655.16,712.87 650.73,715.45 640.00,715.45 C632.46,715.45 626.55,713.44 621.79,709.26 C619.44,707.20 615.17,708.38 614.56,711.27 C614.31,712.49 613.61,717.97 613.02,723.42 C612.43,728.88 611.11,735.22 610.10,737.51 C607.82,742.67 601.04,749.30 595.03,752.27 ZM 359.07 743.39 C353.17,745.14 339.11,745.41 332.70,743.90 C321.23,741.21 309.95,733.05 303.03,722.45 C301.55,720.19 300.33,718.83 299.31,717.33 C294.43,710.12 294.42,699.61 294.29,568.13 C294.28,552.26 294.26,534.61 294.23,515.00 C294.05,380.51 294.29,322.95 295.06,319.24 C295.66,316.34 297.68,310.94 299.55,307.24 C308.71,289.09 324.93,278.98 344.86,279.01 C359.52,279.03 364.44,280.99 389.27,296.68 C397.64,301.97 409.23,309.19 415.00,312.71 C420.77,316.24 428.20,320.84 431.50,322.94 C434.80,325.04 445.28,331.58 454.79,337.48 L 472.07 348.20 L 471.95 365.60 C471.89,375.17 471.62,383.00 471.35,383.00 C470.12,383.00 461.93,377.98 397.81,337.92 C354.31,310.75 353.54,310.31 348.49,309.55 C339.70,308.23 331.29,312.81 326.69,321.41 L 324.50 325.50 L 324.50 511.50 C324.50,524.31 324.50,536.25 324.50,547.39 C324.48,693.60 324.48,701.73 328.53,706.01 C329.08,706.59 329.70,707.10 330.41,707.87 C334.53,712.36 338.70,714.00 346.02,714.00 C346.24,714.00 346.45,714.00 346.65,714.00 C347.96,714.00 349.00,714.01 350.03,713.88 C354.14,713.39 358.00,710.90 378.03,698.43 C389.29,691.42 401.20,684.01 404.50,681.97 C407.80,679.93 423.92,669.87 440.33,659.63 C456.73,649.38 470.57,641.00 471.08,641.00 C471.61,641.00 472.00,648.27 472.00,658.01 L 472.00 675.02 L 468.25 677.60 C466.19,679.02 458.65,683.79 451.50,688.19 C425.93,703.92 415.19,710.62 393.78,724.18 C369.26,739.70 366.67,741.14 359.07,743.39 ZM 401.00 512.11 C401.00,585.38 401.26,604.12 402.25,603.73 C402.94,603.47 409.58,599.44 417.00,594.79 C436.75,582.41 480.43,554.98 496.00,545.17 C521.32,529.23 529.50,524.11 538.79,518.40 C543.90,515.25 548.27,512.38 548.49,512.01 C548.72,511.65 542.74,507.63 535.20,503.07 C522.95,495.67 512.70,489.27 468.00,461.13 C435.48,440.66 402.13,420.00 401.59,420.00 C401.27,420.00 401.00,461.45 401.00,512.11 ZM 526.04 725.07 C527.02,726.91 528.42,727.00 555.50,727.00 C581.56,727.00 584.01,726.85 584.85,725.25 C585.36,724.29 586.29,717.88 586.92,711.00 C588.65,692.08 587.77,693.80 598.40,688.63 C603.50,686.14 610.70,682.09 614.39,679.61 L 621.11 675.11 L 630.03 681.63 C636.29,686.21 639.48,687.95 640.72,687.49 C641.70,687.12 644.75,684.26 647.50,681.12 C650.25,677.98 658.91,668.35 666.75,659.71 C676.19,649.30 681.00,643.24 681.00,641.75 C681.01,640.23 678.39,637.03 672.87,631.83 L 664.73 624.15 L 667.43 617.40 C668.92,613.68 671.21,606.62 672.53,601.69 C673.85,596.77 675.14,592.52 675.41,592.25 C675.68,591.98 681.34,590.99 687.99,590.04 C694.64,589.09 700.57,587.83 701.17,587.23 C702.54,585.86 702.43,533.03 701.05,531.65 C700.53,531.13 696.79,530.49 692.73,530.23 L 685.35 529.76 L 682.50 535.63 C678.34,544.20 669.62,552.25 655.12,560.89 L 642.78 568.24 L 643.41 572.13 C646.85,593.67 642.94,612.11 631.07,630.29 C621.50,644.95 602.74,658.21 585.50,662.51 C576.37,664.78 559.86,664.83 550.56,662.60 C543.18,660.84 533.23,656.81 528.85,653.81 C527.39,652.82 525.92,652.00 525.60,652.00 C524.51,652.00 524.93,723.01 526.04,725.07 ZM 682.09 487.47 L 685.50 494.15 L 692.72 493.81 C696.69,493.62 700.37,493.02 700.90,492.48 C702.39,490.96 703.12,437.34 701.67,436.16 C701.03,435.64 695.55,434.69 689.50,434.06 C683.45,433.43 677.72,432.68 676.77,432.40 C675.75,432.09 674.63,430.17 674.03,427.69 C672.68,422.14 669.74,412.95 666.87,405.31 L 664.54 399.12 L 672.27 391.17 C676.52,386.80 680.00,382.73 680.00,382.12 C680.00,381.51 678.52,379.32 676.72,377.25 C648.66,345.17 640.12,336.00 638.35,336.00 C637.68,336.00 633.73,338.70 629.58,342.00 C625.43,345.30 621.58,348.00 621.03,348.00 C620.49,348.00 617.67,346.49 614.77,344.64 C609.12,341.04 595.17,333.73 590.90,332.14 C588.01,331.06 587.70,329.58 586.42,311.00 C586.02,305.10 586.16,301.68 584.53,299.69 C582.28,296.93 576.64,296.95 561.45,296.99 C559.47,296.99 557.33,297.00 555.01,297.00 C528.41,297.00 527.02,297.09 526.04,298.93 C525.08,300.72 524.43,372.00 525.37,372.00 C525.57,372.00 529.60,370.03 534.32,367.62 C546.39,361.46 554.88,359.51 569.00,359.65 C590.02,359.86 605.59,366.63 621.55,382.50 C628.83,389.75 631.50,393.26 635.25,400.57 C643.35,416.34 645.80,430.28 643.69,448.50 L 642.88 455.50 L 655.73 463.18 C670.77,472.16 677.38,478.25 682.09,487.47 ZM 525.23 584.43 C525.01,601.05 525.22,605.09 526.26,604.83 C526.98,604.65 535.54,599.55 545.30,593.50 C614.18,550.77 643.13,532.72 647.30,529.92 C654.05,525.37 657.00,519.96 657.00,512.12 C657.00,504.77 654.60,499.31 649.76,495.65 C647.97,494.29 637.28,487.45 626.00,480.45 C614.72,473.44 587.58,456.52 565.67,442.85 C543.76,429.18 525.64,418.00 525.40,418.00 C525.16,418.00 525.08,427.54 525.23,439.20 L 525.50 460.41 L 544.50 472.24 C554.95,478.74 565.75,485.41 568.50,487.06 C584.86,496.88 606.50,511.05 606.50,511.95 C606.50,512.86 584.81,526.87 551.50,547.47 C546.00,550.88 537.90,555.92 533.50,558.68 L 525.50 563.70 ZM 558.27 635.95 C585.10,641.24 612.91,620.99 615.90,593.99 C616.35,589.87 616.55,586.30 616.33,586.05 C615.84,585.50 613.93,586.61 591.00,600.79 C556.84,621.90 545.01,629.50 545.01,630.31 C545.00,631.45 553.24,634.95 558.27,635.95 ZM 602.00 429.84 C609.97,434.85 616.58,438.95 616.69,438.97 C616.79,438.99 616.66,437.31 616.39,435.25 C614.20,418.27 611.67,412.54 601.83,402.39 C593.83,394.15 588.03,390.68 578.40,388.42 C568.20,386.02 552.56,387.95 546.55,392.34 C544.76,393.65 545.31,394.19 554.56,400.20 C560.03,403.74 569.67,409.82 576.00,413.70 C582.33,417.57 594.03,424.84 602.00,429.84 Z" fill="rgb(255, 255, 255)"/>
<path d="M 1.00 512.00 L 1.00 1.00 L 512.00 1.00 L 1023.00 1.00 L 1023.00 512.00 L 1023.00 1023.00 L 512.00 1023.00 L 1.00 1023.00 L 1.00 512.00 ZM 595.03 752.27 C601.04,749.30 607.82,742.67 610.10,737.51 C611.11,735.22 612.43,728.88 613.02,723.42 C613.61,717.97 614.31,712.49 614.56,711.27 C615.17,708.38 619.44,707.20 621.79,709.26 C626.55,713.44 632.46,715.45 640.00,715.45 C650.73,715.45 655.16,712.87 667.72,699.31 C687.79,677.63 703.27,659.40 705.72,654.57 C710.93,644.28 709.48,631.58 702.00,622.12 C699.80,619.33 698.00,616.82 698.00,616.53 C698.00,616.24 699.27,616.00 700.82,616.00 C705.62,616.00 713.29,613.15 718.16,609.55 C721.56,607.04 723.72,604.28 726.16,599.33 L 729.50 592.55 L 729.84 563.02 C730.21,530.05 729.77,526.33 724.47,517.52 L 721.04 511.82 L 723.42 508.66 C729.25,500.94 729.41,499.91 729.80,467.50 C730.20,435.23 729.66,429.71 725.41,422.33 C720.68,414.12 713.84,409.96 700.63,407.27 L 696.75 406.48 L 700.44 402.07 C706.73,394.54 707.49,392.43 707.49,382.50 C707.49,375.19 707.08,372.75 705.33,369.50 C702.50,364.25 661.17,317.57 655.97,313.75 C647.20,307.30 636.03,306.25 626.50,310.98 C623.20,312.62 619.72,314.52 618.77,315.21 C615.44,317.62 613.90,314.29 612.97,302.65 C611.66,286.38 607.48,278.71 596.73,272.88 L 590.50 269.50 L 556.50 269.50 C525.46,269.50 522.07,269.67 517.56,271.41 C511.66,273.68 504.66,279.87 501.67,285.46 C499.51,289.49 499.50,289.71 499.23,366.33 L 498.95 443.16 L 494.23 440.42 C491.63,438.91 484.10,434.30 477.50,430.18 C470.90,426.06 458.75,418.55 450.50,413.50 C442.25,408.45 425.15,397.88 412.50,390.01 C382.86,371.57 369.81,363.49 368.25,362.60 C367.25,362.03 367.00,392.18 367.00,511.94 C367.00,601.01 367.37,662.00 367.91,662.00 C368.41,662.00 377.07,656.76 387.16,650.35 C397.25,643.95 409.23,636.41 413.79,633.60 C418.35,630.80 423.85,627.38 426.03,626.00 C452.94,608.97 497.91,581.00 498.39,581.00 C498.72,581.00 499.00,614.44 499.00,655.32 C499.00,719.04 499.22,730.37 500.53,734.78 C502.67,741.99 509.69,749.34 517.50,752.54 L 523.50 755.00 L 557.00 754.75 C589.38,754.51 590.65,754.43 595.03,752.27 ZM 359.07 743.39 C366.67,741.14 369.26,739.70 393.78,724.18 C415.19,710.62 425.93,703.92 451.50,688.19 C458.65,683.79 466.19,679.02 468.25,677.60 L 472.00 675.02 L 472.00 658.01 C472.00,648.27 471.61,641.00 471.08,641.00 C470.57,641.00 456.73,649.38 440.33,659.63 C423.92,669.87 407.80,679.93 404.50,681.97 C401.20,684.01 389.29,691.42 378.03,698.43 C352.22,714.50 353.25,714.00 346.02,714.00 C338.70,714.00 334.53,712.36 330.41,707.87 C324.08,700.97 324.50,715.04 324.50,511.50 L 324.50 325.50 L 326.69 321.41 C331.29,312.81 339.70,308.23 348.49,309.55 C353.54,310.31 354.31,310.75 397.81,337.92 C461.93,377.98 470.12,383.00 471.35,383.00 C471.62,383.00 471.89,375.17 471.95,365.60 L 472.07 348.20 L 454.79 337.48 C445.28,331.58 434.80,325.04 431.50,322.94 C428.20,320.84 420.77,316.24 415.00,312.71 C409.23,309.19 397.64,301.97 389.27,296.68 C364.44,280.99 359.52,279.03 344.86,279.01 C324.93,278.98 308.71,289.09 299.55,307.24 C297.68,310.94 295.66,316.34 295.06,319.24 C294.29,322.95 294.05,380.51 294.23,515.00 C294.54,730.75 293.57,707.95 303.03,722.45 C309.95,733.05 321.23,741.21 332.70,743.90 C339.11,745.41 353.17,745.14 359.07,743.39 ZM 526.04 725.07 C524.93,723.01 524.51,652.00 525.60,652.00 C525.92,652.00 527.39,652.82 528.85,653.81 C533.23,656.81 543.18,660.84 550.56,662.60 C559.86,664.83 576.37,664.78 585.50,662.51 C602.74,658.21 621.50,644.95 631.07,630.29 C642.94,612.11 646.85,593.67 643.41,572.13 L 642.78 568.24 L 655.12 560.89 C669.62,552.25 678.34,544.20 682.50,535.63 L 685.35 529.76 L 692.73 530.23 C696.79,530.49 700.53,531.13 701.05,531.65 C702.43,533.03 702.54,585.86 701.17,587.23 C700.57,587.83 694.64,589.09 687.99,590.04 C681.34,590.99 675.68,591.98 675.41,592.25 C675.14,592.52 673.85,596.77 672.53,601.69 C671.21,606.62 668.92,613.68 667.43,617.40 L 664.73 624.15 L 672.87 631.83 C678.39,637.03 681.01,640.23 681.00,641.75 C681.00,643.24 676.19,649.30 666.75,659.71 C658.91,668.35 650.25,677.98 647.50,681.12 C644.75,684.26 641.70,687.12 640.72,687.49 C639.48,687.95 636.29,686.21 630.03,681.63 L 621.11 675.11 L 614.39 679.61 C610.70,682.09 603.50,686.14 598.40,688.63 C587.77,693.80 588.65,692.08 586.92,711.00 C586.29,717.88 585.36,724.29 584.85,725.25 C584.01,726.85 581.56,727.00 555.50,727.00 C528.42,727.00 527.02,726.91 526.04,725.07 ZM 558.27 635.95 C553.24,634.95 545.00,631.45 545.01,630.31 C545.01,629.50 556.84,621.90 591.00,600.79 C613.93,586.61 615.84,585.50 616.33,586.05 C616.55,586.30 616.35,589.87 615.90,593.99 C612.91,620.99 585.10,641.24 558.27,635.95 ZM 525.23 584.43 L 525.50 563.70 L 533.50 558.68 C537.90,555.92 546.00,550.88 551.50,547.47 C584.81,526.87 606.50,512.86 606.50,511.95 C606.50,511.05 584.86,496.88 568.50,487.06 C565.75,485.41 554.95,478.74 544.50,472.24 L 525.50 460.41 L 525.23 439.20 C525.08,427.54 525.16,418.00 525.40,418.00 C525.64,418.00 543.76,429.18 565.67,442.85 C587.58,456.52 614.72,473.44 626.00,480.45 C637.28,487.45 647.97,494.29 649.76,495.65 C654.60,499.31 657.00,504.77 657.00,512.12 C657.00,519.96 654.05,525.37 647.30,529.92 C643.13,532.72 614.18,550.77 545.30,593.50 C535.54,599.55 526.98,604.65 526.26,604.83 C525.22,605.09 525.01,601.05 525.23,584.43 ZM 401.00 512.11 C401.00,461.45 401.27,420.00 401.59,420.00 C402.13,420.00 435.48,440.66 468.00,461.13 C512.70,489.27 522.95,495.67 535.20,503.07 C542.74,507.63 548.72,511.65 548.49,512.01 C548.27,512.38 543.90,515.25 538.79,518.40 C529.50,524.11 521.32,529.23 496.00,545.17 C480.43,554.98 436.75,582.41 417.00,594.79 C409.58,599.44 402.94,603.47 402.25,603.73 C401.26,604.12 401.00,585.38 401.00,512.11 ZM 682.09 487.47 C677.38,478.25 670.77,472.16 655.73,463.18 L 642.88 455.50 L 643.69 448.50 C645.80,430.28 643.35,416.34 635.25,400.57 C631.50,393.26 628.83,389.75 621.55,382.50 C605.59,366.63 590.02,359.86 569.00,359.65 C554.88,359.51 546.39,361.46 534.32,367.62 C529.60,370.03 525.57,372.00 525.37,372.00 C524.43,372.00 525.08,300.72 526.04,298.93 C527.02,297.09 528.41,297.00 555.01,297.00 C587.94,297.00 585.38,295.86 586.42,311.00 C587.70,329.58 588.01,331.06 590.90,332.14 C595.17,333.73 609.12,341.04 614.77,344.64 C617.67,346.49 620.49,348.00 621.03,348.00 C621.58,348.00 625.43,345.30 629.58,342.00 C633.73,338.70 637.68,336.00 638.35,336.00 C640.12,336.00 648.66,345.17 676.72,377.25 C678.52,379.32 680.00,381.51 680.00,382.12 C680.00,382.73 676.52,386.80 672.27,391.17 L 664.54 399.12 L 666.87 405.31 C669.74,412.95 672.68,422.14 674.03,427.69 C674.63,430.17 675.75,432.09 676.77,432.40 C677.72,432.68 683.45,433.43 689.50,434.06 C695.55,434.69 701.03,435.64 701.67,436.16 C703.12,437.34 702.39,490.96 700.90,492.48 C700.37,493.02 696.69,493.62 692.72,493.81 L 685.50 494.15 L 682.09 487.47 ZM 602.00 429.84 C594.03,424.84 582.33,417.57 576.00,413.70 C569.67,409.82 560.03,403.74 554.56,400.20 C545.31,394.19 544.76,393.65 546.55,392.34 C552.56,387.95 568.20,386.02 578.40,388.42 C588.03,390.68 593.83,394.15 601.83,402.39 C611.67,412.54 614.20,418.27 616.39,435.25 C616.66,437.31 616.79,438.99 616.69,438.97 C616.58,438.95 609.97,434.85 602.00,429.84 Z" fill="rgb(19,96,227)"/>
</g>
</svg>
